<svg width="28" height="20" viewBox="0 0 28 20" fill="none" xmlns="http://www.w3.org/2000/svg">
<path fill-rule="evenodd" clip-rule="evenodd" d="M2.15264 0.0178733C2.07063 0.0299693 1.97105 0.0575816 1.9313 0.0793544C1.89147 0.101127 1.83483 0.118979 1.80534 0.118979C1.73937 0.118979 1.26492 0.35164 1.12114 0.454498C0.567951 0.850414 0.157619 1.48408 0.0293003 2.14077C-0.0417075 2.50423 0.0294684 16.9018 0.103585 17.1724C0.353752 18.0853 0.991309 18.7296 1.91643 19.0045L2.18853 19.0853L14.0715 19.0897C24.8881 19.0938 25.9637 19.0895 26.0567 19.0418C26.1128 19.0129 26.1792 18.9894 26.2042 18.9894C26.3126 18.9894 26.8603 18.6854 27.0703 18.5085C27.4708 18.1716 27.7171 17.8036 27.9113 17.2524L28 17.0004V9.5377V2.07503L27.9244 1.86731C27.5978 0.970456 27.0777 0.445238 26.1635 0.0891981L25.9467 0.00477622L14.1242 0.000438328C7.62184 -0.00198088 2.23458 0.00586066 2.15264 0.0178733ZM10.5565 4.3606C11.602 4.51726 12.4637 4.8723 13.1744 5.43915C13.5681 5.75314 13.602 5.8822 13.3782 6.21663C13.3058 6.32474 13.2466 6.4271 13.2466 6.44412C13.2466 6.46122 13.2257 6.49851 13.2001 6.52704C13.1745 6.55557 13.1067 6.66769 13.0494 6.77622C12.9921 6.88466 12.9169 7.0178 12.8823 7.07203C12.8478 7.12633 12.7585 7.27708 12.684 7.40721C12.4461 7.82273 12.3315 7.87721 12.0706 7.69869C11.3011 7.17213 10.8979 7.00512 10.0345 6.85522C8.8715 6.65325 7.63033 7.24146 7.14084 8.22666C6.79689 8.9188 6.77387 10.0748 7.0921 10.6714C7.12571 10.7345 7.15319 10.799 7.15319 10.815C7.15319 10.8309 7.22302 10.9481 7.30832 11.0755C8.13419 12.3088 9.76057 12.6002 11.1934 11.7717C11.4265 11.6369 11.4587 11.6145 11.8061 11.3454C12.2047 11.0367 12.2867 11.0644 12.6892 11.6441C13.3466 12.5908 13.5115 12.8576 13.5115 12.9744C13.5115 13.2547 12.5204 14.0145 11.7563 14.32C11.1848 14.5485 11.019 14.6015 10.7378 14.6462C10.6238 14.6643 10.5175 14.6871 10.5016 14.6969C10.3705 14.7773 9.06242 14.8163 8.67654 14.7513C8.57638 14.7345 8.39007 14.7029 8.2626 14.6812C6.7621 14.4255 5.34329 13.4159 4.63809 12.102C4.50355 11.8514 4.23893 11.1913 4.23893 11.1063C4.23893 11.0708 4.21834 10.9839 4.19322 10.9131C3.84498 9.93328 4.03044 8.15642 4.59414 7.07203C4.88372 6.51503 5.53405 5.74355 5.94875 5.46501C6.40135 5.16111 6.58126 5.05257 6.85967 4.91551C7.23176 4.73224 7.87184 4.51076 8.17982 4.45879C8.29823 4.43876 8.441 4.40798 8.49713 4.39038C8.77503 4.30329 10.0507 4.28477 10.5565 4.3606ZM20.8965 4.3611C21.9455 4.49507 22.9776 4.9327 23.6675 5.53617C23.9412 5.77558 23.9715 5.85216 23.8667 6.03994C23.8223 6.11944 23.7393 6.27185 23.6821 6.37872C23.625 6.48558 23.5655 6.5891 23.55 6.60887C23.5343 6.62856 23.4423 6.79265 23.3455 6.97342C23.2486 7.15428 23.1237 7.38711 23.0679 7.49097C22.9915 7.63295 22.9313 7.6981 22.8248 7.75391L22.6833 7.82815L22.5459 7.74999C22.4703 7.70694 22.3179 7.60525 22.2072 7.524C21.8702 7.27674 21.2437 6.99311 20.88 6.92312C20.7706 6.9021 20.6217 6.87223 20.5488 6.85663C19.0775 6.54247 17.6065 7.49856 17.3343 8.94591C16.869 11.42 19.4965 13.1539 21.612 11.7688C21.7049 11.708 21.7918 11.6582 21.805 11.6582C21.8182 11.6582 21.9657 11.5472 22.1327 11.4116C22.5789 11.0493 22.6985 11.073 23.0437 11.5924C23.1484 11.7499 23.3596 12.0448 23.7476 12.5753C24.0081 12.9314 23.9805 13.044 23.5379 13.434C22.6914 14.1797 21.7346 14.5975 20.5157 14.7535C20.1528 14.7999 19.0753 14.7654 18.8599 14.7005C18.7688 14.673 18.6536 14.6503 18.6039 14.6501C18.4334 14.6495 17.8604 14.4564 17.4028 14.2453C16.2946 13.7343 15.3962 12.8505 14.9661 11.8485C14.9095 11.7167 14.8473 11.5794 14.828 11.5436C14.7946 11.4816 14.7523 11.3365 14.6025 10.7705C14.4664 10.2556 14.4565 8.875 14.5856 8.38841C14.6141 8.28063 14.6375 8.16643 14.6375 8.13473C14.6375 8.10294 14.6588 8.02845 14.6848 7.96905C14.7108 7.90966 14.7568 7.77969 14.7871 7.68025C15.095 6.66785 16.3221 5.26071 17.1343 4.98867C17.1545 4.98192 17.2902 4.9216 17.4359 4.85453C18.4535 4.38663 19.702 4.20861 20.8965 4.3611Z" fill="white"/>
</svg>
